<?xml version="1.0" encoding="UTF-8"?>
<!DOCTYPE svg PUBLIC "-//W3C//DTD SVG 1.1//EN" "http://www.w3.org/Graphics/SVG/1.1/DTD/svg11.dtd">
<!-- Creator: CorelDRAW X8 -->
<svg xmlns="http://www.w3.org/2000/svg" xml:space="preserve" width="71.9666mm" height="128.016mm" version="1.1" style="shape-rendering:geometricPrecision; text-rendering:geometricPrecision; image-rendering:optimizeQuality; fill-rule:evenodd; clip-rule:evenodd"
viewBox="0 0 7197 12802"
 xmlns:xlink="http://www.w3.org/1999/xlink">
 <defs>
  <style type="text/css">
   <![CDATA[
    .fil0 {fill:#FEFEFE}
   ]]>
  </style>
 </defs>
 <g id="Слой_x0020_1">
  <metadata id="CorelCorpID_0Corel-Layer"/>
  <path class="fil0" d="M3563 12134c-824,0 -824,-1340 0,-1340 920,0 921,1340 0,1340zm-2787 -10301l5645 0 0 8361 -5645 0 0 -8361zm-776 -776l0 10724c0,456 458,942 1042,1005 165,18 78,-17 299,-17 176,0 241,22 359,31 156,13 192,-31 381,-31 180,0 231,30 355,34 141,4 168,-34 351,-34 180,0 231,30 355,34 140,4 168,-34 350,-34 180,0 231,30 355,34 141,4 168,-34 351,-34 180,0 231,30 355,34 140,4 168,-34 351,-34 179,0 231,30 354,34 133,4 201,-34 386,-34 307,0 613,118 1074,-196 249,-169 479,-497 479,-897l0 -10584c0,-592 -544,-1093 -988,-1093l-5221 0c-164,0 -258,57 -378,116 -332,165 -610,519 -610,942z"/>
 </g>
</svg>
