<?xml version="1.0" encoding="UTF-8"?>
<!DOCTYPE svg PUBLIC "-//W3C//DTD SVG 1.1//EN" "http://www.w3.org/Graphics/SVG/1.1/DTD/svg11.dtd">
<!-- Creator: CorelDRAW X8 -->
<svg xmlns="http://www.w3.org/2000/svg" xml:space="preserve" width="89.4078mm" height="94.5726mm" version="1.1" style="shape-rendering:geometricPrecision; text-rendering:geometricPrecision; image-rendering:optimizeQuality; fill-rule:evenodd; clip-rule:evenodd"
viewBox="0 0 8941 9457"
 xmlns:xlink="http://www.w3.org/1999/xlink">
 <defs>
  <style type="text/css">
   <![CDATA[
    .fil0 {fill:#FEFEFE}
   ]]>
  </style>
 </defs>
 <g id="Слой_x0020_1">
  <metadata id="CorelCorpID_0Corel-Layer"/>
  <path class="fil0" d="M6843 1646l1045 0 0 -940c0,-83 67,-150 149,-150 81,0 147,65 149,146 0,1 1,2 1,4l0 940c188,0 204,-7 204,217l0 7089c0,4 0,8 0,11 -21,3 -45,5 -73,5l-1591 0c-40,0 -74,-3 -101,-10l0 -6 0 -7089c0,-167 50,-217 217,-217zm-766 6888l-5427 0c-40,0 -73,-3 -101,-10l0 -6 0 -6221c0,-167 50,-217 217,-217l5311 0 0 6454zm1369 -7379l-815 0c-394,0 -505,245 -510,434l-5567 0c-462,16 -554,335 -554,612l0 6414c0,220 190,410 410,410l260 0 5407 0c0,241 174,434 409,434l260 0 1525 0 260 0c220,0 410,-190 410,-410l0 -7306c-6,-212 48,-562 -302,-572 5,-652 -6,-1173 -598,-1173 -406,0 -583,327 -595,611l0 546zm-4986 4108c0,-154 281,-207 281,0 0,207 -281,154 -281,0zm-290 145c74,20 55,21 93,76 35,50 25,50 69,99 140,156 404,156 544,0 45,-49 34,-49 69,-99 39,-55 19,-56 93,-76 0,-189 13,-292 -78,-404 -188,-232 -501,-240 -700,-13 -104,118 -90,213 -90,417zm290 2170c0,-154 281,-207 281,0 0,207 -281,154 -281,0zm-290 145c74,19 55,20 93,75 35,51 25,51 69,100 140,156 404,156 544,0 94,-104 57,-147 162,-175 0,-189 13,-292 -78,-404 -188,-232 -501,-240 -700,-13 -104,117 -90,213 -90,417zm-868 -145c0,-154 282,-207 282,0 0,207 -282,154 -282,0zm-289 145c105,28 68,71 162,175 140,156 404,156 544,0 93,-104 57,-147 162,-175 0,-189 13,-292 -78,-404 -189,-232 -501,-240 -701,-13 -103,117 -89,213 -89,417zm1447 -1302c0,-155 281,-207 281,0 0,206 -281,154 -281,0zm-290 144c105,28 69,72 162,176 140,156 404,156 544,0 94,-104 57,-148 162,-176 0,-189 13,-292 -78,-404 -188,-232 -501,-239 -700,-13 -104,118 -90,213 -90,417zm-868 -144c0,-155 282,-207 282,0 0,206 -282,154 -282,0zm-289 144c105,28 68,72 162,176 140,156 404,156 544,0 93,-104 57,-148 162,-176 0,-189 13,-292 -78,-404 -189,-232 -501,-239 -701,-13 -103,118 -89,213 -89,417zm3761 -144c0,-155 282,-207 282,0 0,206 -282,154 -282,0zm-289 144c171,46 65,290 482,290 163,0 241,-140 293,-214 38,-55 19,-56 93,-76 0,-189 13,-292 -78,-404 -189,-232 -501,-239 -700,-13 -104,118 -90,213 -90,417zm-868 -1302c0,-21 32,-83 48,-99 180,-183 371,236 97,236 -21,0 -75,-15 -97,-38 -16,-16 -48,-78 -48,-99zm-289 145c170,45 65,289 482,289 91,0 176,-61 224,-114 44,-49 34,-49 69,-99 38,-55 19,-56 93,-76 0,-189 13,-292 -79,-404 -188,-232 -500,-240 -700,-13 -103,118 -89,213 -89,417zm289 1013c0,-155 281,-207 281,0 0,162 -176,156 -233,98 -16,-16 -48,-77 -48,-98zm-289 144c170,46 65,290 482,290 91,0 176,-61 224,-114 44,-50 34,-50 69,-100 38,-55 19,-56 93,-76 0,-189 13,-292 -79,-404 -188,-232 -500,-239 -700,-13 -103,118 -89,213 -89,417zm1446 -1302c0,-154 282,-207 282,0 0,162 -177,157 -234,99 -16,-16 -48,-78 -48,-99zm-289 145c171,45 65,289 482,289 163,0 241,-139 293,-213 38,-55 19,-56 93,-76 0,-189 13,-292 -78,-404 -189,-232 -501,-240 -700,-13 -104,118 -90,213 -90,417zm-868 2170c0,-154 281,-207 281,0 0,162 -176,157 -233,99 -16,-16 -48,-78 -48,-99zm-289 145c170,45 65,289 482,289 163,0 241,-139 293,-214 38,-55 19,-56 93,-75 0,-189 13,-292 -79,-404 -188,-232 -500,-240 -700,-13 -103,117 -89,213 -89,417zm-2026 -2460c0,-21 32,-83 48,-99 180,-183 371,236 97,236 -89,0 -145,-89 -145,-137zm-289 145c170,45 65,289 482,289 252,0 242,-251 386,-289 0,-189 13,-292 -78,-404 -189,-232 -501,-240 -701,-13 -103,118 -89,213 -89,417zm3761 2170c0,-154 282,-207 282,0 0,207 -282,154 -282,0zm-289 145c171,45 65,289 482,289 252,0 242,-251 386,-289 0,-189 13,-292 -78,-404 -189,-232 -501,-240 -700,-13 -104,117 -90,213 -90,417zm-3183 -4775l3762 0 0 724 -3762 0 0 -724zm-289 -24l0 772c0,141 124,265 265,265l3810 0c141,0 265,-124 265,-265l0 -772c0,-141 -124,-265 -265,-265l-3810 0c-141,0 -265,124 -265,265z"/>
 </g>
</svg>
