<?xml version="1.0" encoding="UTF-8"?>
<!DOCTYPE svg PUBLIC "-//W3C//DTD SVG 1.1//EN" "http://www.w3.org/Graphics/SVG/1.1/DTD/svg11.dtd">
<!-- Creator: CorelDRAW X8 -->
<svg xmlns="http://www.w3.org/2000/svg" xml:space="preserve" width="105.128mm" height="105.833mm" version="1.1" style="shape-rendering:geometricPrecision; text-rendering:geometricPrecision; image-rendering:optimizeQuality; fill-rule:evenodd; clip-rule:evenodd"
viewBox="0 0 10513 10583"
 xmlns:xlink="http://www.w3.org/1999/xlink">
 <defs>
  <style type="text/css">
   <![CDATA[
    .fil0 {fill:#189D0E}
   ]]>
  </style>
 </defs>
 <g id="Слой_x0020_1">
  <metadata id="CorelCorpID_0Corel-Layer"/>
  <path class="fil0" d="M5362 882c613,0 1315,166 1741,376 231,113 467,229 659,364 102,73 192,143 303,226 100,76 180,171 269,260 168,167 348,340 486,537 65,92 156,223 211,319 581,1012 757,2131 469,3286 -165,662 -465,1141 -863,1646 -258,281 -418,452 -725,686 -1255,957 -3694,1191 -4913,132l-1623 529 513 -1558c-295,-504 -246,-362 -513,-947 -318,-696 -364,-1761 -198,-2526 171,-786 490,-1265 945,-1842 341,-432 592,-565 1032,-869 569,-393 1501,-619 2207,-619zm1031 -784c179,43 326,76 508,127 693,266 1028,449 1678,898 193,153 523,446 670,634 224,286 326,375 535,736 414,718 668,1473 729,2273 0,1142 -96,1802 -612,2842 -390,788 -1127,1520 -1872,1973 -1417,864 -3117,959 -4657,347 -862,-343 -191,-269 -1168,-36l-1229 396c-189,63 -813,282 -975,295l347 -1032c95,-333 594,-1663 570,-1755 0,-1 -405,-714 -578,-1397l-101 -534c-188,-1182 153,-2822 952,-3755 983,-1243 2126,-1949 3734,-2089 336,-66 1145,-1 1469,77z"/>
  <path class="fil0" d="M8043 6632l0 -141 -945 -537c-481,-299 -498,-14 -703,194l-251 278c-150,144 -392,-36 -726,-238 -321,-195 -505,-362 -753,-622 -136,-142 -537,-690 -537,-874 0,-160 458,-382 458,-706 0,-40 -425,-1249 -526,-1308 -71,-41 -498,-109 -731,52 -96,65 -165,145 -225,233l-70 105c-4,6 -10,15 -15,22 -644,949 56,1978 640,2766 562,759 1226,1264 2092,1612 600,241 1361,531 2038,-137 130,-129 254,-445 254,-699z"/>
 </g>
</svg>
