<?xml version="1.0" encoding="UTF-8"?>
<!DOCTYPE svg PUBLIC "-//W3C//DTD SVG 1.1//EN" "http://www.w3.org/Graphics/SVG/1.1/DTD/svg11.dtd">
<!-- Creator: CorelDRAW X8 -->
<svg xmlns="http://www.w3.org/2000/svg" xml:space="preserve" width="152.993mm" height="94.5726mm" version="1.1" style="shape-rendering:geometricPrecision; text-rendering:geometricPrecision; image-rendering:optimizeQuality; fill-rule:evenodd; clip-rule:evenodd"
viewBox="0 0 15299 9457"
 xmlns:xlink="http://www.w3.org/1999/xlink">
 <defs>
  <style type="text/css">
   <![CDATA[
    .fil0 {fill:#FEFEFE}
    @media(min-width:1024px){
      .fil0 {fill: #000000}
    }
   ]]>
  </style>
 </defs>
 <g id="Слой_x0020_1">
  <metadata id="CorelCorpID_0Corel-Layer"/>
  <g id="_1634326083840">
   <path class="fil0" d="M1 -2l12612 0 0 890 -1037 785 0 -825 -10538 0 0 7761 10538 0 0 -2859c309,-233 670,-504 1037,-781l0 4490 -12612 0 0 -9461z"/>
   <polygon class="fil0" points="2210,2169 10634,2169 10634,2349 10369,2550 2210,2550 "/>
   <polygon class="fil0" points="2210,3864 8369,3864 7941,4245 2210,4245 "/>
   <polygon class="fil0" points="2210,5390 7544,5390 7496,5771 2210,5771 "/>
   <rect class="fil0" x="2210" y="7085" width="8424" height="381"/>
   <path class="fil0" d="M9484 6078l-291 -40 75 -540 -560 -77c46,-333 -3,-301 325,-528 136,-94 370,-239 474,-356l757 988c-140,70 -692,565 -780,553zm3560 -4943l1425 1895c114,-57 335,-244 447,-330 279,-210 331,-210 379,-555 27,-195 -106,-349 -195,-466 -137,-181 -633,-872 -769,-979 -513,-403 -946,270 -1287,435zm-2842 3118c-65,-9 -142,-42 -131,-124 17,-124 458,-411 571,-497l1536 -1163c66,-50 244,-214 329,-202 84,11 141,64 124,140 -21,93 -1026,812 -1116,880l-969 733c-61,47 -276,242 -344,233zm-1983 571l-218 1578c-7,47 6,64 54,70l1556 216c65,9 230,-146 285,-188 489,-370 4061,-3049 4154,-3153l-1416 -1883c-120,57 -408,300 -542,401l-3603 2727c-56,43 -261,167 -270,232z"/>
  </g>
 </g>
</svg>
