<?xml version="1.0" encoding="UTF-8"?>
<!DOCTYPE svg PUBLIC "-//W3C//DTD SVG 1.1//EN" "http://www.w3.org/Graphics/SVG/1.1/DTD/svg11.dtd">
<!-- Creator: CorelDRAW X8 -->
<svg xmlns="http://www.w3.org/2000/svg" xml:space="preserve" width="39.9626mm" height="29.9718mm" version="1.1" style="shape-rendering:geometricPrecision; text-rendering:geometricPrecision; image-rendering:optimizeQuality; fill-rule:evenodd; clip-rule:evenodd"
viewBox="0 0 3996 2997"
 xmlns:xlink="http://www.w3.org/1999/xlink">
 <defs>
  <style type="text/css">
   <![CDATA[
    .fil0 {fill:#FEFEFE}
        @media(min-width:1024px){
      .fil0 {fill: #000000}
    }
   ]]>
  </style>
 </defs>
 <g id="Слой_x0020_1">
  <metadata id="CorelCorpID_0Corel-Layer"/>
  <path class="fil0" d="M424 2745c8,-21 48,-61 66,-84l68 -77c15,-18 19,-19 37,-39 138,-151 315,-375 443,-508 34,-37 39,-47 66,-78l307 -346c12,-15 17,-23 30,-37 32,-33 44,-46 65,-76 34,11 95,77 128,103l244 208c33,30 87,81 120,98 36,-19 87,-69 125,-103 35,-32 84,-68 121,-100 26,-24 219,-197 246,-206l271 311c24,27 45,51 72,82 159,181 506,594 644,739 25,27 85,85 95,114l-3148 -1zm3322 -2325l0 2129c-42,-28 -342,-392 -407,-461l-657 -753 1064 -915zm-3495 0l340 286c26,23 45,38 67,58l398 342c50,44 235,194 259,229l-268 307c-89,104 -170,199 -264,303 -47,51 -85,100 -135,153 -56,61 -366,429 -398,450l1 -2128zm1747 1158c-126,-89 -279,-245 -392,-331 -35,-26 -62,-54 -97,-86l-197 -168c-115,-109 -365,-300 -482,-411 -62,-59 -358,-297 -379,-331l3094 0c-20,34 -321,276 -384,336l-967 829c-67,53 -124,112 -196,162zm-1998 1420l3996 0 0 -2998 -3996 0 0 2998z"/>
 </g>
</svg>
