<?xml version="1.0" encoding="UTF-8"?>
<!DOCTYPE svg PUBLIC "-//W3C//DTD SVG 1.1//EN" "http://www.w3.org/Graphics/SVG/1.1/DTD/svg11.dtd">
<!-- Creator: CorelDRAW X8 -->
<svg xmlns="http://www.w3.org/2000/svg" xml:space="preserve" width="81.6186mm" height="79.4172mm" version="1.1" style="shape-rendering:geometricPrecision; text-rendering:geometricPrecision; image-rendering:optimizeQuality; fill-rule:evenodd; clip-rule:evenodd"
viewBox="0 0 8162 7942"
 xmlns:xlink="http://www.w3.org/1999/xlink">
 <defs>
  <style type="text/css">
   <![CDATA[
    .fil0 {fill:#000000}
   ]]>
  </style>
 </defs>
 <g id="Слой_x0020_1">
  <metadata id="CorelCorpID_0Corel-Layer"/>
  <g id="_1634347293760">
   <path class="fil0" d="M679 6806l0 -4990c612,-142 1556,-793 2155,-793 339,0 2155,907 2494,907 599,0 1543,-651 2155,-794l0 4989c-612,143 -1556,794 -2155,794 -339,0 -2155,-907 -2494,-907 -599,0 -1543,651 -2155,794zm4649 -5670c-339,0 -2155,-907 -2494,-907 -407,0 -2460,935 -2835,1134l0 6577c375,-199 2428,-1134 2835,-1134 339,0 2155,907 2494,907 407,0 2460,-936 2835,-1134l0 -6577c-375,199 -2428,1134 -2835,1134z"/>
   <path class="fil0" d="M2040 2497c0,1085 1361,1085 1361,0 0,-757 -1361,-757 -1361,0z"/>
   <path class="fil0" d="M4761 5558c0,1086 1361,1086 1361,0 0,-757 -1361,-757 -1361,0z"/>
   <path class="fil0" d="M3741 3631c0,480 680,480 680,0 0,-481 -680,-481 -680,0z"/>
   <path class="fil0" d="M6122 3631c0,480 680,480 680,0 0,-481 -680,-481 -680,0z"/>
   <path class="fil0" d="M6122 4651c0,481 680,481 680,0 0,-480 -680,-480 -680,0z"/>
   <path class="fil0" d="M1360 3631c0,480 680,480 680,0 0,-481 -680,-481 -680,0z"/>
   <path class="fil0" d="M1360 4651c0,481 680,481 680,0 0,-480 -680,-480 -680,0z"/>
   <path class="fil0" d="M4081 4651c0,481 680,481 680,0 0,-480 -680,-480 -680,0z"/>
  </g>
 </g>
</svg>
