<?xml version="1.0" encoding="UTF-8"?>
<!DOCTYPE svg PUBLIC "-//W3C//DTD SVG 1.1//EN" "http://www.w3.org/Graphics/SVG/1.1/DTD/svg11.dtd">
<!-- Creator: CorelDRAW X8 -->
<svg xmlns="http://www.w3.org/2000/svg" xml:space="preserve" width="134.112mm" height="37.6766mm" version="1.1" style="shape-rendering:geometricPrecision; text-rendering:geometricPrecision; image-rendering:optimizeQuality; fill-rule:evenodd; clip-rule:evenodd"
viewBox="0 0 13411 3768"
 xmlns:xlink="http://www.w3.org/1999/xlink">
 <defs>
  <style type="text/css">
   <![CDATA[
    .str0 {stroke:#99FF00;stroke-width:7.62}
    .str1 {stroke:#FF6633;stroke-width:7.62}
    .fil2 {fill:none}
    .fil1 {fill:none;fill-rule:nonzero}
    .fil3 {fill:#FEFEFE}
    .fil0 {fill:#FEFEFE;fill-rule:nonzero}
   ]]>
  </style>
   <clipPath id="id0" style="clip-rule:nonzero">
    <path d="M5129 288l-1526 0c-38,0 -71,5 -99,13 -28,8 -53,18 -72,30 -20,13 -36,25 -48,39 -21,23 -37,48 -48,75 -11,28 -18,55 -22,83 -3,28 -4,54 -4,80l0 1584c-1,32 2,66 10,102 7,36 23,70 48,102 20,24 47,45 82,62 35,16 80,25 135,26l1167 0c71,-1 131,-10 180,-26 50,-16 90,-35 121,-57 31,-23 54,-43 69,-61 21,-24 41,-56 59,-98 17,-41 31,-93 42,-158 11,-64 16,-143 17,-237 0,-102 -9,-194 -25,-275 -18,-80 -47,-148 -86,-202 -38,-47 -80,-83 -125,-106 -45,-24 -91,-39 -136,-46 -45,-8 -86,-11 -122,-11l-1029 0 0 -455c0,-10 0,-21 1,-35 1,-13 4,-26 9,-40 4,-13 11,-25 21,-35 15,-11 32,-17 53,-20 20,-4 41,-5 62,-5l1266 0 0 -329zm-2561 1210c-841,0 -1682,0 -2523,0 -57,0 -53,-37 -17,-52 876,-359 1698,-697 2570,-1055 135,-43 137,50 144,70l0 885c-6,123 -64,142 -174,152zm1149 38l825 0c23,0 47,1 71,3 26,3 50,8 73,16 24,9 46,22 66,41 21,21 37,45 46,72 10,26 16,54 19,82 2,29 3,57 3,84 0,23 0,50 -2,81 -1,31 -7,63 -16,94 -9,31 -25,59 -47,83 -21,20 -43,35 -66,44 -24,9 -48,14 -72,16 -25,2 -50,3 -75,2l-655 0c-16,1 -34,0 -53,-1 -20,0 -39,-3 -58,-9 -18,-6 -32,-16 -43,-30 -2,-3 -5,-8 -7,-15 -2,-8 -4,-19 -6,-36 -2,-17 -3,-41 -3,-72l0 -455zm3888 948l0 -1826c1,-22 0,-50 -3,-83 -3,-33 -9,-67 -20,-104 -10,-36 -27,-69 -51,-100 -23,-32 -56,-58 -97,-78 -42,-19 -95,-30 -159,-30 -49,-1 -94,6 -134,20 -40,14 -78,39 -115,75 -36,35 -74,85 -113,150l-870 1449c-7,11 -12,21 -18,32 -6,10 -12,19 -19,26 -7,7 -14,11 -22,11 -13,-1 -22,-5 -27,-15 -6,-10 -9,-22 -10,-37 0,-16 -1,-31 0,-49l9 -1637 -407 0 0 1844c-1,26 0,55 3,88 2,32 8,66 19,99 10,34 26,65 49,94 23,28 54,51 94,69 40,18 91,26 153,27 54,-1 100,-7 137,-19 38,-12 69,-28 94,-48 25,-20 46,-42 64,-67 17,-24 33,-49 47,-73l890 -1459c10,-17 20,-33 29,-48 9,-16 17,-28 26,-38 8,-9 17,-14 25,-14 13,1 22,8 26,23 4,14 5,31 5,49l-13 1669 408 0zm1420 -2221c-66,-1 -136,0 -211,4 -75,3 -151,11 -228,25 -76,14 -151,37 -223,69 -72,32 -138,76 -199,134 -58,57 -104,121 -138,192 -34,72 -59,147 -75,226 -16,80 -26,159 -31,240 -5,80 -7,158 -6,233 -1,63 0,132 4,209 3,77 12,156 27,237 15,82 40,161 74,237 35,77 83,146 145,208 60,57 127,102 199,134 72,32 147,55 225,69 77,14 153,22 228,25 75,3 145,4 209,4 62,0 131,-1 205,-4 75,-3 152,-11 231,-25 79,-14 155,-37 228,-69 73,-32 139,-77 198,-134 47,-48 85,-101 116,-161 30,-59 54,-122 71,-187 18,-65 31,-130 39,-195 8,-66 13,-129 15,-188 2,-59 3,-113 3,-160 0,-73 -2,-150 -7,-230 -5,-81 -16,-161 -33,-242 -16,-80 -41,-156 -73,-228 -33,-72 -77,-136 -131,-191 -59,-58 -126,-102 -198,-134 -73,-32 -149,-55 -227,-69 -78,-14 -155,-22 -229,-25 -75,-4 -144,-5 -208,-4zm-691 1123c0,-111 5,-206 17,-283 11,-77 27,-142 47,-194 21,-52 46,-96 75,-132 36,-44 75,-79 119,-104 44,-25 90,-44 138,-55 48,-12 97,-19 147,-22 50,-3 98,-4 145,-4 46,0 93,1 143,4 49,3 99,10 149,22 50,11 96,30 141,55 45,25 85,60 120,104 28,35 52,79 73,132 20,53 35,119 46,196 11,78 17,172 17,281 0,107 -6,200 -18,278 -11,77 -27,143 -47,196 -21,53 -44,97 -71,131 -35,45 -75,81 -119,106 -45,26 -91,45 -141,57 -49,11 -99,19 -149,22 -50,2 -98,4 -144,4 -81,0 -155,-4 -222,-12 -68,-9 -129,-27 -183,-54 -54,-27 -102,-68 -144,-123 -30,-38 -55,-84 -76,-139 -21,-54 -36,-119 -47,-195 -11,-77 -16,-167 -16,-271zm4045 -1098l-408 0 0 900 -1124 0 0 -900 -407 0 0 2196 407 0 0 -966 1124 0 0 966 408 0 0 -2196z"/>
   </clipPath>
   <clipPath id="id1">
    <path d="M5129 288l-1526 0c-38,0 -71,5 -99,13 -28,8 -53,18 -72,30 -20,13 -36,25 -48,39 -21,23 -37,48 -48,75 -11,28 -18,55 -22,83 -3,28 -4,54 -4,80l0 1584c-1,32 2,66 10,102 7,36 23,70 48,102 20,24 47,45 82,62 35,16 80,25 135,26l1167 0c71,-1 131,-10 180,-26 50,-16 90,-35 121,-57 31,-23 54,-43 69,-61 21,-24 41,-56 59,-98 17,-41 31,-93 42,-158 11,-64 16,-143 17,-237 0,-102 -9,-194 -25,-275 -18,-80 -47,-148 -86,-202 -38,-47 -80,-83 -125,-106 -45,-24 -91,-39 -136,-46 -45,-8 -86,-11 -122,-11l-1029 0 0 -455c0,-10 0,-21 1,-35 1,-13 4,-26 9,-40 4,-13 11,-25 21,-35 15,-11 32,-17 53,-20 20,-4 41,-5 62,-5l1266 0 0 -329zm-2561 1210c-841,0 -1682,0 -2523,0 -57,0 -53,-37 -17,-52 876,-359 1698,-697 2570,-1055 135,-43 137,50 144,70l0 885c-6,123 -64,142 -174,152zm1149 38l825 0c23,0 47,1 71,3 26,3 50,8 73,16 24,9 46,22 66,41 21,21 37,45 46,72 10,26 16,54 19,82 2,29 3,57 3,84 0,23 0,50 -2,81 -1,31 -7,63 -16,94 -9,31 -25,59 -47,83 -21,20 -43,35 -66,44 -24,9 -48,14 -72,16 -25,2 -50,3 -75,2l-655 0c-16,1 -34,0 -53,-1 -20,0 -39,-3 -58,-9 -18,-6 -32,-16 -43,-30 -2,-3 -5,-8 -7,-15 -2,-8 -4,-19 -6,-36 -2,-17 -3,-41 -3,-72l0 -455zm3888 948l0 -1826c1,-22 0,-50 -3,-83 -3,-33 -9,-67 -20,-104 -10,-36 -27,-69 -51,-100 -23,-32 -56,-58 -97,-78 -42,-19 -95,-30 -159,-30 -49,-1 -94,6 -134,20 -40,14 -78,39 -115,75 -36,35 -74,85 -113,150l-870 1449c-7,11 -12,21 -18,32 -6,10 -12,19 -19,26 -7,7 -14,11 -22,11 -13,-1 -22,-5 -27,-15 -6,-10 -9,-22 -10,-37 0,-16 -1,-31 0,-49l9 -1637 -407 0 0 1844c-1,26 0,55 3,88 2,32 8,66 19,99 10,34 26,65 49,94 23,28 54,51 94,69 40,18 91,26 153,27 54,-1 100,-7 137,-19 38,-12 69,-28 94,-48 25,-20 46,-42 64,-67 17,-24 33,-49 47,-73l890 -1459c10,-17 20,-33 29,-48 9,-16 17,-28 26,-38 8,-9 17,-14 25,-14 13,1 22,8 26,23 4,14 5,31 5,49l-13 1669 408 0zm1420 -2221c-66,-1 -136,0 -211,4 -75,3 -151,11 -228,25 -76,14 -151,37 -223,69 -72,32 -138,76 -199,134 -58,57 -104,121 -138,192 -34,72 -59,147 -75,226 -16,80 -26,159 -31,240 -5,80 -7,158 -6,233 -1,63 0,132 4,209 3,77 12,156 27,237 15,82 40,161 74,237 35,77 83,146 145,208 60,57 127,102 199,134 72,32 147,55 225,69 77,14 153,22 228,25 75,3 145,4 209,4 62,0 131,-1 205,-4 75,-3 152,-11 231,-25 79,-14 155,-37 228,-69 73,-32 139,-77 198,-134 47,-48 85,-101 116,-161 30,-59 54,-122 71,-187 18,-65 31,-130 39,-195 8,-66 13,-129 15,-188 2,-59 3,-113 3,-160 0,-73 -2,-150 -7,-230 -5,-81 -16,-161 -33,-242 -16,-80 -41,-156 -73,-228 -33,-72 -77,-136 -131,-191 -59,-58 -126,-102 -198,-134 -73,-32 -149,-55 -227,-69 -78,-14 -155,-22 -229,-25 -75,-4 -144,-5 -208,-4zm-691 1123c0,-111 5,-206 17,-283 11,-77 27,-142 47,-194 21,-52 46,-96 75,-132 36,-44 75,-79 119,-104 44,-25 90,-44 138,-55 48,-12 97,-19 147,-22 50,-3 98,-4 145,-4 46,0 93,1 143,4 49,3 99,10 149,22 50,11 96,30 141,55 45,25 85,60 120,104 28,35 52,79 73,132 20,53 35,119 46,196 11,78 17,172 17,281 0,107 -6,200 -18,278 -11,77 -27,143 -47,196 -21,53 -44,97 -71,131 -35,45 -75,81 -119,106 -45,26 -91,45 -141,57 -49,11 -99,19 -149,22 -50,2 -98,4 -144,4 -81,0 -155,-4 -222,-12 -68,-9 -129,-27 -183,-54 -54,-27 -102,-68 -144,-123 -30,-38 -55,-84 -76,-139 -21,-54 -36,-119 -47,-195 -11,-77 -16,-167 -16,-271zm4045 -1098l-408 0 0 900 -1124 0 0 -900 -407 0 0 2196 407 0 0 -966 1124 0 0 966 408 0 0 -2196z"/>
   </clipPath>
   <clipPath id="id2">
    <path d="M10165 3037l0 204 418 0 0 -204 -418 0zm-375 -92l-636 0 0 571 498 0 0 -259c0,-9 8,-16 18,-16l132 0c9,0 17,7 17,16l0 409c0,9 -8,16 -17,16l-42 0 0 0 -90 0 -1 0 -532 0 -1 0 -81 0 -1 0 -50 0c-9,0 -17,-14 -17,-32l0 -839c0,-18 8,-32 17,-32l51 0 1 0 80 0 1 0 653 0c16,0 29,7 29,17l0 132c0,10 -13,17 -29,17zm3473 321l0 -229 -418 0 0 229 418 0zm145 -239l0 249c1,1 2,3 2,5l0 115c0,9 -12,15 -26,15l-539 0 0 243c0,15 -6,28 -15,28l-115 0c-9,0 -15,-13 -15,-28l0 -735c0,-4 0,-7 1,-11l0 -2c0,-3 1,-5 3,-8 3,-4 7,-7 11,-7l115 0c1,0 2,0 3,0l551 0c14,0 26,7 26,15l0 116c0,2 -1,3 -2,5zm-1013 655l-434 0 0 0 -75 0 -1 0 -40 0c-9,0 -15,-13 -15,-28l0 -735c0,-15 6,-28 15,-28l116 0c8,0 15,13 15,28l0 617 404 0 0 -617c0,-15 7,-28 15,-28l116 0c8,0 15,13 15,28l0 735c0,15 -7,28 -15,28l-14 0 0 0 -102 0 0 0zm-843 0l-550 0 -1 0 -51 0 0 0 -65 0c-8,0 -15,-13 -15,-28l0 -735c0,-15 7,-28 15,-28l116 0c1,0 2,0 2,0l547 0c1,0 2,0 2,0l116 0c8,0 15,13 15,28l0 735c0,15 -7,28 -15,28l-59 0 -1 0 -56 0 0 0zm-536 -146l521 0 0 -499 -521 0 0 499zm-368 222l-371 -371 -112 0 0 267c0,15 -6,28 -15,28l-115 0c-9,0 -15,-13 -15,-28l0 -735 0 -1 0 -12c0,-4 2,-7 6,-10 2,-3 5,-5 9,-5l115 0c1,0 2,0 3,0l442 0c1,0 2,0 3,0l115 0c6,0 12,4 14,10 1,2 1,3 1,5l0 2 0 1 0 113 0 0 0 234 0 0 0 116 0 0 0 0 0 0 0 0 0 1 0 0 0 0c0,9 -7,16 -15,16l-115 0c-3,0 -6,0 -8,-2l-107 0 268 268c10,10 13,23 7,29l-81 82c-6,5 -19,2 -29,-8z"/>
   </clipPath>
   <clipPath id="id3">
    <path d="M10165 3037l0 204 418 0 0 -204 -418 0zm-375 -92l-636 0 0 571 498 0 0 -259c0,-9 8,-16 18,-16l132 0c9,0 17,7 17,16l0 409c0,9 -8,16 -17,16l-42 0 0 0 -90 0 -1 0 -532 0 -1 0 -81 0 -1 0 -50 0c-9,0 -17,-14 -17,-32l0 -839c0,-18 8,-32 17,-32l51 0 1 0 80 0 1 0 653 0c16,0 29,7 29,17l0 132c0,10 -13,17 -29,17zm3473 321l0 -229 -418 0 0 229 418 0zm145 -239l0 249c1,1 2,3 2,5l0 115c0,9 -12,15 -26,15l-539 0 0 243c0,15 -6,28 -15,28l-115 0c-9,0 -15,-13 -15,-28l0 -735c0,-4 0,-7 1,-11l0 -2c0,-3 1,-5 3,-8 3,-4 7,-7 11,-7l115 0c1,0 2,0 3,0l551 0c14,0 26,7 26,15l0 116c0,2 -1,3 -2,5zm-1013 655l-434 0 0 0 -75 0 -1 0 -40 0c-9,0 -15,-13 -15,-28l0 -735c0,-15 6,-28 15,-28l116 0c8,0 15,13 15,28l0 617 404 0 0 -617c0,-15 7,-28 15,-28l116 0c8,0 15,13 15,28l0 735c0,15 -7,28 -15,28l-14 0 0 0 -102 0 0 0zm-843 0l-550 0 -1 0 -51 0 0 0 -65 0c-8,0 -15,-13 -15,-28l0 -735c0,-15 7,-28 15,-28l116 0c1,0 2,0 2,0l547 0c1,0 2,0 2,0l116 0c8,0 15,13 15,28l0 735c0,15 -7,28 -15,28l-59 0 -1 0 -56 0 0 0zm-536 -146l521 0 0 -499 -521 0 0 499zm-368 222l-371 -371 -112 0 0 267c0,15 -6,28 -15,28l-115 0c-9,0 -15,-13 -15,-28l0 -735 0 -1 0 -12c0,-4 2,-7 6,-10 2,-3 5,-5 9,-5l115 0c1,0 2,0 3,0l442 0c1,0 2,0 3,0l115 0c6,0 12,4 14,10 1,2 1,3 1,5l0 2 0 1 0 113 0 0 0 234 0 0 0 116 0 0 0 0 0 0 0 0 0 1 0 0 0 0c0,9 -7,16 -15,16l-115 0c-3,0 -6,0 -8,-2l-107 0 268 268c10,10 13,23 7,29l-81 82c-6,5 -19,2 -29,-8z"/>
   </clipPath>
 </defs>
 <g id="Слой_x0020_1">
  <metadata id="CorelCorpID_0Corel-Layer"/>
  <path class="fil0" d="M5129 288l-1526 0c-38,0 -71,5 -99,13 -28,8 -53,18 -72,30 -20,13 -36,25 -48,39 -21,23 -37,48 -48,75 -11,28 -18,55 -22,83 -3,28 -4,54 -4,80l0 1584c-1,32 2,66 10,102 7,36 23,70 48,102 20,24 47,45 82,62 35,16 80,25 135,26l1167 0c71,-1 131,-10 180,-26 50,-16 90,-35 121,-57 31,-23 54,-43 69,-61 21,-24 41,-56 59,-98 17,-41 31,-93 42,-158 11,-64 16,-143 17,-237 0,-102 -9,-194 -25,-275 -18,-80 -47,-148 -86,-202 -38,-47 -80,-83 -125,-106 -45,-24 -91,-39 -136,-46 -45,-8 -86,-11 -122,-11l-1029 0 0 -455c0,-10 0,-21 1,-35 1,-13 4,-26 9,-40 4,-13 11,-25 21,-35 15,-11 32,-17 53,-20 20,-4 41,-5 62,-5l1266 0 0 -329zm-2561 1210c-841,0 -1682,0 -2523,0 -57,0 -53,-37 -17,-52 876,-359 1698,-697 2570,-1055 135,-43 137,50 144,70l0 885c-6,123 -64,142 -174,152zm1149 38l825 0c23,0 47,1 71,3 26,3 50,8 73,16 24,9 46,22 66,41 21,21 37,45 46,72 10,26 16,54 19,82 2,29 3,57 3,84 0,23 0,50 -2,81 -1,31 -7,63 -16,94 -9,31 -25,59 -47,83 -21,20 -43,35 -66,44 -24,9 -48,14 -72,16 -25,2 -50,3 -75,2l-655 0c-16,1 -34,0 -53,-1 -20,0 -39,-3 -58,-9 -18,-6 -32,-16 -43,-30 -2,-3 -5,-8 -7,-15 -2,-8 -4,-19 -6,-36 -2,-17 -3,-41 -3,-72l0 -455zm3888 948l0 -1826c1,-22 0,-50 -3,-83 -3,-33 -9,-67 -20,-104 -10,-36 -27,-69 -51,-100 -23,-32 -56,-58 -97,-78 -42,-19 -95,-30 -159,-30 -49,-1 -94,6 -134,20 -40,14 -78,39 -115,75 -36,35 -74,85 -113,150l-870 1449c-7,11 -12,21 -18,32 -6,10 -12,19 -19,26 -7,7 -14,11 -22,11 -13,-1 -22,-5 -27,-15 -6,-10 -9,-22 -10,-37 0,-16 -1,-31 0,-49l9 -1637 -407 0 0 1844c-1,26 0,55 3,88 2,32 8,66 19,99 10,34 26,65 49,94 23,28 54,51 94,69 40,18 91,26 153,27 54,-1 100,-7 137,-19 38,-12 69,-28 94,-48 25,-20 46,-42 64,-67 17,-24 33,-49 47,-73l890 -1459c10,-17 20,-33 29,-48 9,-16 17,-28 26,-38 8,-9 17,-14 25,-14 13,1 22,8 26,23 4,14 5,31 5,49l-13 1669 408 0zm1420 -2221c-66,-1 -136,0 -211,4 -75,3 -151,11 -228,25 -76,14 -151,37 -223,69 -72,32 -138,76 -199,134 -58,57 -104,121 -138,192 -34,72 -59,147 -75,226 -16,80 -26,159 -31,240 -5,80 -7,158 -6,233 -1,63 0,132 4,209 3,77 12,156 27,237 15,82 40,161 74,237 35,77 83,146 145,208 60,57 127,102 199,134 72,32 147,55 225,69 77,14 153,22 228,25 75,3 145,4 209,4 62,0 131,-1 205,-4 75,-3 152,-11 231,-25 79,-14 155,-37 228,-69 73,-32 139,-77 198,-134 47,-48 85,-101 116,-161 30,-59 54,-122 71,-187 18,-65 31,-130 39,-195 8,-66 13,-129 15,-188 2,-59 3,-113 3,-160 0,-73 -2,-150 -7,-230 -5,-81 -16,-161 -33,-242 -16,-80 -41,-156 -73,-228 -33,-72 -77,-136 -131,-191 -59,-58 -126,-102 -198,-134 -73,-32 -149,-55 -227,-69 -78,-14 -155,-22 -229,-25 -75,-4 -144,-5 -208,-4zm-691 1123c0,-111 5,-206 17,-283 11,-77 27,-142 47,-194 21,-52 46,-96 75,-132 36,-44 75,-79 119,-104 44,-25 90,-44 138,-55 48,-12 97,-19 147,-22 50,-3 98,-4 145,-4 46,0 93,1 143,4 49,3 99,10 149,22 50,11 96,30 141,55 45,25 85,60 120,104 28,35 52,79 73,132 20,53 35,119 46,196 11,78 17,172 17,281 0,107 -6,200 -18,278 -11,77 -27,143 -47,196 -21,53 -44,97 -71,131 -35,45 -75,81 -119,106 -45,26 -91,45 -141,57 -49,11 -99,19 -149,22 -50,2 -98,4 -144,4 -81,0 -155,-4 -222,-12 -68,-9 -129,-27 -183,-54 -54,-27 -102,-68 -144,-123 -30,-38 -55,-84 -76,-139 -21,-54 -36,-119 -47,-195 -11,-77 -16,-167 -16,-271zm4045 -1098l-408 0 0 900 -1124 0 0 -900 -407 0 0 2196 407 0 0 -966 1124 0 0 966 408 0 0 -2196z"/>
  <g style="clip-path:url(#id0)">
   <g id="_1634928545488">
   </g>
  </g>
  <path id="1" class="fil1" d="M5129 288l-1526 0c-38,0 -71,5 -99,13 -28,8 -53,18 -72,30 -20,13 -36,25 -48,39 -21,23 -37,48 -48,75 -11,28 -18,55 -22,83 -3,28 -4,54 -4,80l0 1584c-1,32 2,66 10,102 7,36 23,70 48,102 20,24 47,45 82,62 35,16 80,25 135,26l1167 0c71,-1 131,-10 180,-26 50,-16 90,-35 121,-57 31,-23 54,-43 69,-61 21,-24 41,-56 59,-98 17,-41 31,-93 42,-158 11,-64 16,-143 17,-237 0,-102 -9,-194 -25,-275 -18,-80 -47,-148 -86,-202 -38,-47 -80,-83 -125,-106 -45,-24 -91,-39 -136,-46 -45,-8 -86,-11 -122,-11l-1029 0 0 -455c0,-10 0,-21 1,-35 1,-13 4,-26 9,-40 4,-13 11,-25 21,-35 15,-11 32,-17 53,-20 20,-4 41,-5 62,-5l1266 0 0 -329zm-2561 1210c-841,0 -1682,0 -2523,0 -57,0 -53,-37 -17,-52 876,-359 1698,-697 2570,-1055 135,-43 137,50 144,70l0 885c-6,123 -64,142 -174,152zm1149 38l825 0c23,0 47,1 71,3 26,3 50,8 73,16 24,9 46,22 66,41 21,21 37,45 46,72 10,26 16,54 19,82 2,29 3,57 3,84 0,23 0,50 -2,81 -1,31 -7,63 -16,94 -9,31 -25,59 -47,83 -21,20 -43,35 -66,44 -24,9 -48,14 -72,16 -25,2 -50,3 -75,2l-655 0c-16,1 -34,0 -53,-1 -20,0 -39,-3 -58,-9 -18,-6 -32,-16 -43,-30 -2,-3 -5,-8 -7,-15 -2,-8 -4,-19 -6,-36 -2,-17 -3,-41 -3,-72l0 -455zm3888 948l0 -1826c1,-22 0,-50 -3,-83 -3,-33 -9,-67 -20,-104 -10,-36 -27,-69 -51,-100 -23,-32 -56,-58 -97,-78 -42,-19 -95,-30 -159,-30 -49,-1 -94,6 -134,20 -40,14 -78,39 -115,75 -36,35 -74,85 -113,150l-870 1449c-7,11 -12,21 -18,32 -6,10 -12,19 -19,26 -7,7 -14,11 -22,11 -13,-1 -22,-5 -27,-15 -6,-10 -9,-22 -10,-37 0,-16 -1,-31 0,-49l9 -1637 -407 0 0 1844c-1,26 0,55 3,88 2,32 8,66 19,99 10,34 26,65 49,94 23,28 54,51 94,69 40,18 91,26 153,27 54,-1 100,-7 137,-19 38,-12 69,-28 94,-48 25,-20 46,-42 64,-67 17,-24 33,-49 47,-73l890 -1459c10,-17 20,-33 29,-48 9,-16 17,-28 26,-38 8,-9 17,-14 25,-14 13,1 22,8 26,23 4,14 5,31 5,49l-13 1669 408 0zm1420 -2221c-66,-1 -136,0 -211,4 -75,3 -151,11 -228,25 -76,14 -151,37 -223,69 -72,32 -138,76 -199,134 -58,57 -104,121 -138,192 -34,72 -59,147 -75,226 -16,80 -26,159 -31,240 -5,80 -7,158 -6,233 -1,63 0,132 4,209 3,77 12,156 27,237 15,82 40,161 74,237 35,77 83,146 145,208 60,57 127,102 199,134 72,32 147,55 225,69 77,14 153,22 228,25 75,3 145,4 209,4 62,0 131,-1 205,-4 75,-3 152,-11 231,-25 79,-14 155,-37 228,-69 73,-32 139,-77 198,-134 47,-48 85,-101 116,-161 30,-59 54,-122 71,-187 18,-65 31,-130 39,-195 8,-66 13,-129 15,-188 2,-59 3,-113 3,-160 0,-73 -2,-150 -7,-230 -5,-81 -16,-161 -33,-242 -16,-80 -41,-156 -73,-228 -33,-72 -77,-136 -131,-191 -59,-58 -126,-102 -198,-134 -73,-32 -149,-55 -227,-69 -78,-14 -155,-22 -229,-25 -75,-4 -144,-5 -208,-4zm-691 1123c0,-111 5,-206 17,-283 11,-77 27,-142 47,-194 21,-52 46,-96 75,-132 36,-44 75,-79 119,-104 44,-25 90,-44 138,-55 48,-12 97,-19 147,-22 50,-3 98,-4 145,-4 46,0 93,1 143,4 49,3 99,10 149,22 50,11 96,30 141,55 45,25 85,60 120,104 28,35 52,79 73,132 20,53 35,119 46,196 11,78 17,172 17,281 0,107 -6,200 -18,278 -11,77 -27,143 -47,196 -21,53 -44,97 -71,131 -35,45 -75,81 -119,106 -45,26 -91,45 -141,57 -49,11 -99,19 -149,22 -50,2 -98,4 -144,4 -81,0 -155,-4 -222,-12 -68,-9 -129,-27 -183,-54 -54,-27 -102,-68 -144,-123 -30,-38 -55,-84 -76,-139 -21,-54 -36,-119 -47,-195 -11,-77 -16,-167 -16,-271zm4045 -1098l-408 0 0 900 -1124 0 0 -900 -407 0 0 2196 407 0 0 -966 1124 0 0 966 408 0 0 -2196z"/>
  <g style="clip-path:url(#id1)">
   <path id="2" class="fil2 str0" d="M1 263l12378 2246m0 -2246l-12378 2246"/>
  </g>
  <path class="fil3" d="M100 1760l2543 0c54,0 98,44 98,99l0 762c0,54 -44,98 -98,98l-2543 0c-54,0 -98,-44 -98,-98l0 -762c0,-55 44,-99 98,-99z"/>
  <path class="fil3" d="M175 -1c842,0 1683,0 2524,0 57,0 54,37 17,52 -876,359 -1699,696 -2571,1053 -135,43 -137,-50 -144,-70l0 -883c6,-123 64,-142 174,-152z"/>
  <path class="fil3" d="M10165 3037l0 204 418 0 0 -204 -418 0zm-375 -92l-636 0 0 571 498 0 0 -259c0,-9 8,-16 18,-16l132 0c9,0 17,7 17,16l0 409c0,9 -8,16 -17,16l-42 0 0 0 -90 0 -1 0 -532 0 -1 0 -81 0 -1 0 -50 0c-9,0 -17,-14 -17,-32l0 -839c0,-18 8,-32 17,-32l51 0 1 0 80 0 1 0 653 0c16,0 29,7 29,17l0 132c0,10 -13,17 -29,17zm3473 321l0 -229 -418 0 0 229 418 0zm145 -239l0 249c1,1 2,3 2,5l0 115c0,9 -12,15 -26,15l-539 0 0 243c0,15 -6,28 -15,28l-115 0c-9,0 -15,-13 -15,-28l0 -735c0,-4 0,-7 1,-11l0 -2c0,-3 1,-5 3,-8 3,-4 7,-7 11,-7l115 0c1,0 2,0 3,0l551 0c14,0 26,7 26,15l0 116c0,2 -1,3 -2,5zm-1013 655l-434 0 0 0 -75 0 -1 0 -40 0c-9,0 -15,-13 -15,-28l0 -735c0,-15 6,-28 15,-28l116 0c8,0 15,13 15,28l0 617 404 0 0 -617c0,-15 7,-28 15,-28l116 0c8,0 15,13 15,28l0 735c0,15 -7,28 -15,28l-14 0 0 0 -102 0 0 0zm-843 0l-550 0 -1 0 -51 0 0 0 -65 0c-8,0 -15,-13 -15,-28l0 -735c0,-15 7,-28 15,-28l116 0c1,0 2,0 2,0l547 0c1,0 2,0 2,0l116 0c8,0 15,13 15,28l0 735c0,15 -7,28 -15,28l-59 0 -1 0 -56 0 0 0zm-536 -146l521 0 0 -499 -521 0 0 499zm-368 222l-371 -371 -112 0 0 267c0,15 -6,28 -15,28l-115 0c-9,0 -15,-13 -15,-28l0 -735 0 -1 0 -12c0,-4 2,-7 6,-10 2,-3 5,-5 9,-5l115 0c1,0 2,0 3,0l442 0c1,0 2,0 3,0l115 0c6,0 12,4 14,10 1,2 1,3 1,5l0 2 0 1 0 113 0 0 0 234 0 0 0 116 0 0 0 0 0 0 0 0 0 1 0 0 0 0c0,9 -7,16 -15,16l-115 0c-3,0 -6,0 -8,-2l-107 0 268 268c10,10 13,23 7,29l-81 82c-6,5 -19,2 -29,-8z"/>
  <g style="clip-path:url(#id2)">
   <g id="_1635083502128">
   </g>
  </g>
  <path id="1" class="fil2" d="M10165 3037l0 204 418 0 0 -204 -418 0zm-375 -92l-636 0 0 571 498 0 0 -259c0,-9 8,-16 18,-16l132 0c9,0 17,7 17,16l0 409c0,9 -8,16 -17,16l-42 0 0 0 -90 0 -1 0 -532 0 -1 0 -81 0 -1 0 -50 0c-9,0 -17,-14 -17,-32l0 -839c0,-18 8,-32 17,-32l51 0 1 0 80 0 1 0 653 0c16,0 29,7 29,17l0 132c0,10 -13,17 -29,17zm3473 321l0 -229 -418 0 0 229 418 0zm145 -239l0 249c1,1 2,3 2,5l0 115c0,9 -12,15 -26,15l-539 0 0 243c0,15 -6,28 -15,28l-115 0c-9,0 -15,-13 -15,-28l0 -735c0,-4 0,-7 1,-11l0 -2c0,-3 1,-5 3,-8 3,-4 7,-7 11,-7l115 0c1,0 2,0 3,0l551 0c14,0 26,7 26,15l0 116c0,2 -1,3 -2,5zm-1013 655l-434 0 0 0 -75 0 -1 0 -40 0c-9,0 -15,-13 -15,-28l0 -735c0,-15 6,-28 15,-28l116 0c8,0 15,13 15,28l0 617 404 0 0 -617c0,-15 7,-28 15,-28l116 0c8,0 15,13 15,28l0 735c0,15 -7,28 -15,28l-14 0 0 0 -102 0 0 0zm-843 0l-550 0 -1 0 -51 0 0 0 -65 0c-8,0 -15,-13 -15,-28l0 -735c0,-15 7,-28 15,-28l116 0c1,0 2,0 2,0l547 0c1,0 2,0 2,0l116 0c8,0 15,13 15,28l0 735c0,15 -7,28 -15,28l-59 0 -1 0 -56 0 0 0zm-536 -146l521 0 0 -499 -521 0 0 499zm-368 222l-371 -371 -112 0 0 267c0,15 -6,28 -15,28l-115 0c-9,0 -15,-13 -15,-28l0 -735 0 -1 0 -12c0,-4 2,-7 6,-10 2,-3 5,-5 9,-5l115 0c1,0 2,0 3,0l442 0c1,0 2,0 3,0l115 0c6,0 12,4 14,10 1,2 1,3 1,5l0 2 0 1 0 113 0 0 0 234 0 0 0 116 0 0 0 0 0 0 0 0 0 1 0 0 0 0c0,9 -7,16 -15,16l-115 0c-3,0 -6,0 -8,-2l-107 0 268 268c10,10 13,23 7,29l-81 82c-6,5 -19,2 -29,-8z"/>
  <g style="clip-path:url(#id3)">
   <path id="2" class="fil2 str1" d="M8987 2779l4423 989m0 -989l-4423 989"/>
  </g>
 </g>
</svg>
