<?xml version="1.0" encoding="UTF-8"?>
<!DOCTYPE svg PUBLIC "-//W3C//DTD SVG 1.1//EN" "http://www.w3.org/Graphics/SVG/1.1/DTD/svg11.dtd">
<!-- Creator: CorelDRAW X8 -->
<svg xmlns="http://www.w3.org/2000/svg" xml:space="preserve" width="90.4238mm" height="136.313mm" version="1.1" style="shape-rendering:geometricPrecision; text-rendering:geometricPrecision; image-rendering:optimizeQuality; fill-rule:evenodd; clip-rule:evenodd"
viewBox="0 0 9042 13631"
 xmlns:xlink="http://www.w3.org/1999/xlink">
 <defs>
  <style type="text/css">
   <![CDATA[
    .fil1 {fill:#000000}
    .fil0 {fill:#000000;fill-rule:nonzero}
   ]]>
  </style>
 </defs>
 <g id="Слой_x0020_1">
  <metadata id="CorelCorpID_0Corel-Layer"/>
  <g id="_1634347296448">
   <path class="fil0" d="M2345 8443c26,-97 46,-198 61,-302 15,-105 20,-185 16,-240 -1,-14 -6,-22 -14,-21 -14,1 -35,33 -63,95 -29,62 -52,124 -70,188 -38,140 -67,255 -86,347 -19,92 -32,168 -37,230 -5,61 -6,124 -1,188 4,54 13,93 27,117 14,24 35,35 61,33 46,-3 96,-27 149,-72 54,-45 101,-103 142,-173 32,-52 58,-78 78,-80 26,-2 40,18 43,59 7,89 -14,179 -64,268 -49,90 -116,165 -200,224 -83,60 -171,94 -263,101 -112,8 -207,-20 -283,-86 -76,-66 -119,-155 -127,-270 -8,-93 4,-205 34,-333 31,-129 75,-260 132,-392 58,-133 123,-253 195,-363 72,-110 145,-195 219,-256 46,-40 99,-62 158,-66 45,-4 87,7 126,32 39,25 70,62 94,111 24,48 38,103 42,164 10,131 -6,261 -47,390 -42,129 -105,243 -190,342 -40,47 -79,85 -117,113 -38,28 -72,43 -102,45 -29,3 -45,-7 -46,-30 -1,-12 8,-37 27,-74 25,-47 54,-119 86,-215 3,-9 5,-19 9,-30 3,-11 7,-26 11,-44zm1454 179l-23 9c-59,21 -102,33 -129,35 -32,3 -49,-5 -50,-21 -1,-6 5,-22 16,-48 41,-75 59,-144 55,-207 -3,-36 -12,-68 -27,-97 -14,-29 -29,-43 -45,-41 -13,1 -32,16 -58,47 -71,90 -126,181 -165,273 -39,93 -55,173 -50,243 3,46 16,83 37,112 21,28 46,42 74,39 24,-1 68,-30 130,-87 63,-57 132,-131 209,-222l31 -30 -5 -5zm-53 292l1 5 -6 -4c-71,97 -136,177 -197,240 -60,63 -117,111 -169,144 -53,33 -102,52 -148,55 -94,7 -173,-18 -239,-76 -66,-58 -102,-135 -110,-231 -4,-59 5,-131 29,-214 24,-84 59,-166 106,-248 78,-133 180,-249 307,-348 130,-102 258,-157 385,-167 107,-8 197,7 269,46 72,38 111,91 116,158 4,49 -9,102 -39,160 45,-3 74,-1 86,8 12,9 20,30 23,66 -1,-4 -1,14 -2,52 1,83 5,160 10,232 3,38 6,67 8,86 3,19 6,41 10,66 4,25 9,45 12,59 10,39 24,77 42,115 -47,53 -92,93 -136,119 -44,27 -91,42 -138,45 -129,10 -201,-93 -218,-308 -2,-25 -2,-45 -2,-60zm1263 -267c-20,9 -34,13 -43,14 -29,2 -54,-7 -74,-27 -20,-21 -32,-48 -35,-81 -5,-66 12,-153 51,-261 39,-108 82,-189 131,-243 34,-41 75,-63 123,-66 37,-3 69,7 98,29 29,23 52,57 69,102 18,46 29,99 34,161 12,155 -9,304 -64,445 -55,141 -133,257 -235,346 -103,89 -216,139 -340,148 -81,7 -153,-7 -216,-41 -63,-34 -114,-86 -152,-156 -38,-70 -61,-152 -68,-247 -7,-91 0,-193 20,-308 21,-114 53,-232 97,-352 44,-121 97,-240 161,-355 68,-126 149,-226 243,-300 65,-54 135,-83 210,-89 77,-6 140,13 189,56 50,43 78,104 83,182 5,55 -12,114 -50,178 -37,64 -87,118 -148,162 -61,44 -122,69 -183,73 -29,2 -45,-4 -46,-19 -1,-12 10,-34 32,-67 36,-53 66,-114 88,-181 23,-68 33,-126 29,-175 -3,-44 -12,-66 -25,-65 -17,1 -41,31 -71,89 -31,58 -57,123 -79,196 -52,176 -90,341 -113,498 -23,156 -31,287 -23,395 7,82 25,149 55,202 30,54 64,79 102,76 47,-3 84,-33 111,-89 28,-57 41,-133 39,-230z"/>
   <path class="fil1" d="M6448 6438c202,0 366,164 366,367 0,202 -164,366 -366,366 -202,0 -366,-164 -366,-366 0,-203 164,-367 366,-367z"/>
   <path class="fil1" d="M6699 2426c520,0 941,421 941,942 0,520 -421,941 -941,941 -521,0 -942,-421 -942,-941 0,-521 421,-942 942,-942z"/>
   <path class="fil1" d="M5835 1610c206,0 373,167 373,373 0,206 -167,373 -373,373 -206,0 -373,-167 -373,-373 0,-206 167,-373 373,-373z"/>
   <path class="fil1" d="M5672 6994c101,0 183,82 183,183 0,101 -82,183 -183,183 -101,0 -183,-82 -183,-183 0,-101 82,-183 183,-183z"/>
   <path class="fil1" d="M5195 3782c202,0 366,164 366,366 0,203 -164,367 -366,367 -203,0 -367,-164 -367,-367 0,-202 164,-366 367,-366z"/>
   <path class="fil1" d="M7556 3587c216,0 391,175 391,391 0,216 -175,390 -391,390 -215,0 -390,-174 -390,-390 0,-216 175,-391 390,-391z"/>
   <path class="fil1" d="M5006 -2c331,0 599,269 599,600 0,331 -268,599 -599,599 -332,0 -600,-268 -600,-599 0,-331 268,-600 600,-600z"/>
   <polygon class="fil1" points="5941,4472 6930,5012 6390,6001 5401,5461 "/>
   <polygon class="fil0" points="6772,5679 7509,5305 7591,6076 6853,6450 "/>
   <path class="fil1" d="M6065 1023c101,0 183,82 183,183 0,101 -82,183 -183,183 -101,0 -183,-82 -183,-183 0,-101 82,-183 183,-183z"/>
   <polygon class="fil1" points="5103,2178 5498,3401 5365,3444 4970,2221 "/>
   <path class="fil0" d="M4301 10945l0 284c0,122 -8,192 -45,231 -11,10 -27,17 -42,21l27 104c30,0 60,-12 84,-31 79,-62 88,-191 88,-336l0 -166 94 0 0 523 122 0 0 -630 -328 0zm668 486l27 144 119 0 -123 -630 -146 0 -137 630 119 0 28 -144 113 0zm-101 -95l23 -131c7,-37 16,-102 23,-144l3 0c5,42 14,105 20,143l21 132 -90 0zm334 -391l0 628c28,3 68,6 114,6 91,0 158,-21 201,-67 34,-34 52,-82 52,-143 0,-63 -22,-113 -59,-146 -35,-29 -82,-46 -137,-46 -17,0 -31,1 -49,4l0 -131 200 0 0 -105 -322 0zm123 333c8,-2 18,-3 28,-3 27,0 49,13 65,31 16,17 24,43 24,72 0,28 -7,54 -23,73 -15,19 -38,30 -67,30 -10,0 -19,0 -27,-2l0 -201zm516 -340c-139,0 -207,148 -207,320 0,173 56,324 199,324 119,0 203,-96 203,-333 0,-144 -43,-311 -195,-311zm-4 106c55,0 71,100 71,210 0,128 -19,222 -71,222 -49,0 -76,-73 -76,-216 0,-136 27,-216 76,-216zm296 531l122 0 0 -235c7,0 16,0 24,0 51,0 114,-19 153,-60 33,-35 54,-83 54,-151 0,-53 -17,-105 -55,-138 -41,-38 -98,-49 -170,-49 -47,0 -94,5 -128,12l0 621zm122 -529c7,-3 19,-5 30,-5 57,0 79,43 79,98 0,59 -28,103 -89,103 -8,0 -14,0 -20,-2l0 -194zm495 385l27 144 119 0 -123 -630 -146 0 -137 630 119 0 28 -144 113 0zm-101 -95l23 -131c7,-37 16,-102 23,-144l3 0c5,42 14,105 20,143l21 132 -90 0zm355 239l122 0 0 -517 112 0 0 -113 -345 0 0 113 111 0 0 517zm474 -637c-139,0 -207,148 -207,320 0,173 56,324 199,324 119,0 203,-96 203,-333 0,-144 -43,-311 -195,-311zm-4 106c55,0 72,100 72,210 0,128 -20,222 -71,222 -50,0 -77,-73 -77,-216 0,-136 27,-216 76,-216zm296 531l122 0 0 -235c7,0 16,0 24,0 51,0 114,-19 153,-60 33,-35 54,-83 54,-151 0,-53 -17,-105 -55,-138 -41,-38 -98,-49 -170,-49 -47,0 -94,5 -128,12l0 621zm122 -529c7,-3 19,-5 30,-5 57,0 79,43 79,98 0,59 -28,103 -89,103 -8,0 -14,0 -20,-2l0 -194zm323 -101l0 630 113 0 93 -240c20,-53 48,-128 62,-185l2 0c-3,63 -7,157 -7,284l0 141 107 0 0 -630 -111 0 -93 244c-18,47 -50,131 -68,185l-2 0c5,-66 12,-174 12,-290l0 -139 -108 0zm579 630c9,-18 13,-37 18,-56 10,-46 15,-138 42,-172 12,-15 29,-24 50,-24l13 0 0 252 123 0 0 -621c-39,-8 -87,-12 -134,-12 -63,0 -119,14 -160,47 -33,28 -57,73 -57,137 0,80 42,131 108,152l0 1c-17,5 -34,15 -45,28 -47,49 -47,137 -63,200 -8,25 -16,49 -25,68l130 0zm123 -347c-6,1 -9,1 -16,1 -54,0 -89,-38 -89,-98 0,-48 24,-93 81,-93 10,0 18,1 24,2l0 188zm-8907 553l0 630 120 0 0 -267 9 0c50,0 67,47 82,121 11,50 20,101 35,146l122 0c-19,-58 -29,-118 -43,-179 -18,-76 -39,-135 -103,-159l144 -292 -134 0 -103 274 -9 0 0 -274 -120 0zm610 -7c-139,0 -207,148 -207,320 0,173 56,324 199,324 119,0 203,-96 203,-333 0,-144 -43,-311 -195,-311zm-5 106c55,0 72,100 72,210 0,128 -19,222 -71,222 -49,0 -76,-73 -76,-216 0,-135 27,-216 75,-216zm688 531l109 0 -38 -630 -129 0 -50 228c-17,80 -31,151 -40,221l-2 0c-11,-71 -27,-141 -45,-221l-50 -228 -129 0 -46 630 106 0 10 -219c4,-62 8,-142 9,-210l3 0c10,68 26,147 39,197l52 222 87 0 54 -226c12,-48 29,-126 40,-193l3 0c-2,68 3,149 5,208l12 221zm217 -630l0 630 123 0 0 -523 125 0 0 523 122 0 0 -630 -370 0zm497 0l0 628c28,4 67,6 114,6 91,0 158,-22 202,-67 32,-34 51,-80 51,-143 0,-120 -77,-192 -196,-192 -25,0 -39,1 -50,3l0 -235 -121 0zm122 333c8,-2 18,-3 28,-3 59,0 90,45 90,102 0,57 -32,104 -94,104 -8,0 -15,0 -24,-1l0 -202zm340 -333l0 630 121 0 0 -267 56 0c9,157 68,274 187,274 111,0 192,-96 192,-333 0,-144 -43,-311 -184,-311 -113,0 -179,112 -194,260l-57 0 0 -253 -121 0zm366 531c-49,0 -69,-94 -69,-219 0,-114 20,-213 69,-213 51,0 67,100 67,210 0,128 -18,222 -66,222l-1 0zm341 99l123 0 0 -517 112 0 0 -113 -346 0 0 113 111 0 0 517zm584 -378l-144 0 0 -145 151 0 0 -107 -273 0 0 630 285 0 0 -107 -163 0 0 -170 144 0 0 -101zm120 378l123 0 0 -235c7,0 16,0 24,0 50,0 114,-18 153,-59 33,-36 53,-83 53,-152 0,-53 -16,-105 -54,-138 -41,-38 -98,-48 -171,-48 -46,0 -93,4 -128,12l0 620zm123 -529c7,-3 18,-4 30,-4 57,0 79,43 79,98 0,58 -28,102 -90,102 -7,0 -14,0 -19,-2l0 -194zm323 -101l0 630 122 0 0 -264 128 0 0 264 122 0 0 -630 -122 0 0 253 -128 0 0 -253 -122 0zm676 -7c-139,0 -207,148 -207,320 0,173 56,324 199,324 119,0 203,-96 203,-333 0,-144 -43,-311 -195,-311zm-5 106c55,0 72,100 72,210 0,128 -19,222 -71,222 -49,0 -76,-73 -76,-216 0,-135 27,-216 75,-216zm296 -99l0 630 113 0 93 -240c20,-53 48,-128 62,-185l2 0c-3,63 -7,157 -7,284l0 141 107 0 0 -630 -111 0 -92 244c-19,48 -51,131 -69,185l-2 0c5,-65 13,-174 13,-289l0 -140 -109 0zm66 -130c5,80 55,107 117,107 69,0 112,-27 122,-107l-78 0c-3,34 -17,53 -43,53 -29,0 -38,-20 -41,-53l-77 0zm581 130l0 630 122 0 0 -523 168 0 0 -107 -290 0zm373 630l122 0 0 -235c8,0 16,0 25,0 50,0 114,-18 153,-59 33,-36 53,-83 53,-152 0,-53 -17,-105 -54,-138 -41,-38 -98,-48 -171,-48 -47,0 -93,4 -128,12l0 620zm122 -529c8,-3 19,-4 30,-4 57,0 80,43 80,98 0,58 -28,102 -90,102 -7,0 -14,0 -20,-2l0 -194zm495 385l27 144 119 0 -122 -630 -147 0 -136 630 118 0 28 -144 113 0zm-100 -95l23 -131c6,-36 16,-102 22,-144l3 0c6,42 14,105 21,143l20 132 -89 0zm486 -413l0 48c-98,15 -200,102 -200,287 0,191 85,271 199,288l0 51 108 0 0 -51c112,-16 199,-97 199,-291 0,-181 -86,-269 -199,-284l0 -48 -107 0zm0 533c-38,-8 -77,-66 -77,-196 0,-139 40,-190 77,-201l0 397zm107 -397c35,9 77,54 77,197 0,141 -36,192 -77,200l0 -397zm296 -114l0 630 113 0 92 -240c21,-53 49,-128 63,-185l1 0c-2,63 -7,157 -7,284l0 141 107 0 0 -630 -111 0 -92 244c-19,48 -51,131 -68,185l-2 0c4,-65 12,-174 12,-289l0 -140 -108 0zm497 0l0 630 120 0 0 -267 9 0c51,0 67,47 82,121 11,50 20,101 35,146l122 0c-18,-58 -29,-118 -43,-179 -17,-76 -39,-135 -103,-159l144 -292 -134 0 -103 274 -9 0 0 -274 -120 0zm443 0l0 630 113 0 92 -240c21,-53 49,-128 63,-185l2 0c-3,63 -8,157 -8,284l0 141 108 0 0 -630 -111 0 -93 244c-19,48 -50,131 -68,185l-2 0c5,-65 12,-174 12,-289l0 -140 -108 0z"/>
   <path class="fil0" d="M895 10316l1 5 -6 -4c-5,2 -11,3 -19,4 -17,3 -36,5 -61,7 -42,3 -64,-3 -65,-19 -1,-8 4,-19 14,-31 29,-39 53,-88 72,-148 18,-60 27,-114 26,-162 -1,-12 -1,-22 0,-32 1,-3 1,-6 1,-9 0,-2 1,-4 1,-6 -1,-12 -10,-17 -26,-16 -32,3 -80,42 -142,117 -40,49 -76,105 -109,170 -33,64 -58,128 -74,192 -16,63 -22,120 -18,169 3,48 17,72 42,70 23,-2 79,-46 167,-132 40,-39 106,-98 196,-175zm-44 273l-32 28c-2,3 -6,6 -11,11 -5,4 -11,11 -19,18 -136,124 -244,211 -322,264 -79,52 -149,80 -210,85 -68,5 -124,-15 -169,-61 -46,-47 -71,-111 -77,-194 -8,-103 13,-211 63,-326 49,-114 118,-221 206,-320 89,-100 188,-181 297,-246 109,-64 217,-100 323,-108 105,-8 186,4 243,36 58,31 89,83 95,155 4,61 -14,137 -55,229 35,0 61,9 79,26 17,18 27,47 30,87 5,65 -1,157 -19,275 -18,119 -43,229 -73,331 -38,128 -96,242 -177,340 -60,75 -138,140 -232,198 -94,57 -176,88 -247,93 -58,5 -112,-15 -162,-58 -49,-43 -76,-94 -81,-153 -3,-39 4,-81 21,-125 17,-43 40,-81 69,-114 61,-71 152,-141 274,-210 23,-13 40,-21 53,-22 5,0 10,2 14,6 4,3 7,8 7,13 1,6 -4,17 -12,35 -22,45 -40,101 -54,168 -15,68 -20,127 -16,175 4,57 15,85 33,83 9,0 20,-12 32,-33 12,-22 23,-46 32,-72 57,-186 91,-357 100,-512 0,-22 -1,-56 -3,-102zm999 -115l-4 26c1,14 1,34 0,61 0,42 -3,75 -6,102 -4,26 -11,48 -22,66 -10,18 -25,38 -43,58 -57,61 -116,94 -178,98 -50,4 -89,-11 -115,-46 -27,-35 -43,-94 -49,-176 -5,-65 -4,-146 3,-243 7,-96 19,-184 34,-262l7 -33c0,-5 2,-15 6,-32 22,-116 44,-202 66,-259 21,-56 49,-103 84,-139 30,-29 66,-44 107,-47 60,-5 98,28 116,99 11,-11 22,-23 31,-37 22,-31 39,-52 52,-63 13,-11 28,-17 45,-18 72,-5 113,63 124,205 6,77 3,153 -8,227 -11,74 -28,136 -49,183 -22,48 -46,73 -71,75 -28,2 -45,-49 -53,-154 -4,-55 -11,-98 -20,-129 -8,-30 -20,-54 -34,-70 -22,48 -30,156 -25,324 1,97 2,159 2,184zm1320 -371l-23 9c-59,21 -102,33 -129,35 -32,2 -49,-5 -50,-22 -1,-5 5,-22 16,-47 41,-75 59,-144 55,-207 -3,-36 -12,-68 -27,-97 -14,-29 -29,-43 -45,-42 -13,1 -32,17 -58,48 -71,90 -126,181 -165,273 -39,92 -55,173 -50,243 3,45 16,83 37,112 21,28 46,41 74,39 24,-2 68,-31 130,-88 63,-56 132,-131 209,-222l31 -30 -5 -4zm-53 292l1 5 -6 -5c-71,98 -136,178 -197,241 -60,63 -117,111 -169,144 -53,33 -102,51 -148,55 -94,7 -173,-18 -239,-77 -66,-57 -102,-134 -110,-231 -4,-59 5,-130 29,-214 24,-83 59,-165 106,-247 78,-133 180,-250 307,-348 130,-102 258,-157 385,-167 107,-8 197,7 269,45 72,39 111,92 116,159 4,49 -9,102 -39,160 45,-4 74,-1 86,8 12,8 20,30 23,66 -1,-4 -1,14 -2,51 1,83 5,161 10,233 3,38 6,66 8,85 2,20 6,42 10,66 4,26 9,45 12,60 10,39 24,77 42,115 -47,53 -92,93 -136,119 -44,26 -91,42 -138,45 -129,10 -201,-93 -218,-309 -2,-24 -2,-44 -2,-59zm1070 -3c28,66 75,97 139,92 46,-4 87,-27 123,-72 36,-44 64,-103 82,-175 18,-72 25,-148 19,-225 -5,-62 -14,-115 -27,-160 -13,-44 -25,-66 -37,-65 -8,1 -27,25 -58,71 -31,47 -61,101 -90,163 -61,119 -106,223 -136,313 -7,23 -12,43 -15,58zm52 -538l34 -77c31,-68 62,-125 89,-171 28,-46 54,-80 77,-102 22,-23 50,-42 82,-57 27,-13 57,-21 89,-23 64,-5 122,10 174,44 51,33 93,85 125,153 31,68 51,147 58,239 10,131 -10,259 -60,385 -49,125 -119,228 -209,310 -90,82 -186,126 -287,134 -60,5 -110,-4 -152,-26 -42,-22 -81,-62 -119,-121l-6 21 -5 28c-41,178 -75,310 -101,394 -25,84 -50,137 -72,157 -17,19 -37,29 -62,31 -47,3 -86,-17 -116,-62 -31,-45 -49,-109 -56,-193 -7,-92 -5,-203 5,-333 10,-130 28,-263 54,-399 25,-137 55,-261 90,-373 23,-70 50,-130 80,-183 30,-53 60,-92 88,-117 22,-15 46,-23 71,-25 38,-3 69,5 91,25 22,20 35,49 38,88 3,33 2,70 -2,110 -2,40 -3,85 -3,137l5 6zm1609 -835l-2 -20c-2,-31 -8,-46 -16,-45 -11,1 -26,19 -47,54 -20,35 -38,74 -53,116 -38,108 -70,222 -96,341 -27,119 -45,238 -55,356 -3,45 -7,95 -10,148l7 4c76,-92 134,-158 172,-197 38,-39 88,-84 150,-135 77,-63 143,-96 196,-100 34,-3 62,8 82,31 21,23 33,56 37,100 1,25 -1,61 -7,109 -10,99 -13,183 -7,251 2,31 7,63 14,97 7,26 24,79 54,158 24,61 36,95 36,101 1,12 -11,27 -38,46 -84,65 -163,101 -237,106 -61,5 -113,-21 -155,-77 -43,-56 -67,-131 -75,-226 -2,-38 -2,-83 1,-137l-6 -5c-110,131 -183,218 -220,264 -138,154 -247,235 -327,241 -37,3 -69,-19 -97,-66 -27,-48 -44,-111 -50,-189 -13,-169 23,-389 107,-659 34,-106 71,-207 111,-303 40,-97 78,-181 116,-252 27,-50 56,-94 87,-132 31,-38 63,-71 96,-97 33,-26 67,-47 102,-61 35,-15 70,-23 106,-26 89,-7 165,15 225,66 61,51 94,120 101,206 4,60 -8,125 -37,195 -29,71 -72,139 -129,205 -37,41 -79,79 -126,112 -48,34 -85,51 -113,54 -8,0 -16,-2 -23,-7 -7,-6 -11,-13 -12,-22 -1,-13 8,-41 27,-84 21,-48 42,-106 61,-175 20,-68 33,-132 42,-193 8,-61 11,-112 8,-153zm741 1491c-38,1 -73,-14 -106,-43 -34,-31 -58,-66 -74,-104 -16,-38 -27,-87 -31,-149 -11,-138 3,-296 41,-474 38,-177 87,-307 146,-390 23,-35 58,-54 104,-57 48,-4 89,16 122,57 33,43 52,99 58,171 8,106 2,232 -18,377 -19,145 -50,297 -94,455 -17,63 -40,107 -70,131 -21,15 -46,24 -75,26l-3 0zm55 -1275c-79,4 -122,-40 -129,-132 -3,-46 4,-100 22,-163 19,-62 42,-109 68,-140 14,-18 29,-30 44,-38 15,-8 34,-13 58,-14 42,-4 74,4 94,23 22,20 34,53 38,100 4,60 -2,117 -18,172 -16,54 -41,99 -72,135 -32,35 -66,54 -101,57l-4 0zm998 -34c63,-2 115,12 155,44 40,31 62,75 67,133 4,50 -7,102 -32,155 -25,53 -58,98 -99,134 -42,35 -85,55 -129,58 -26,2 -40,-6 -41,-24 0,-7 4,-22 12,-45 28,-58 40,-123 34,-194 -2,-36 -8,-54 -16,-53 -12,0 -27,17 -46,48 -19,32 -35,69 -47,111 -20,66 -36,137 -48,210 -11,74 -15,137 -11,187 4,56 16,101 36,132 19,31 44,45 75,43 28,-2 65,-20 110,-53 45,-34 87,-75 126,-122 16,-24 30,-36 44,-37 20,-2 31,9 32,31 8,103 -25,200 -98,289 -51,60 -111,109 -180,148 -68,39 -131,61 -188,66 -99,7 -183,-18 -254,-76 -71,-57 -110,-134 -117,-229 -7,-95 6,-197 40,-305 34,-108 84,-212 150,-312 66,-100 142,-186 230,-256 63,-50 127,-78 190,-83l5 0zm770 1212c49,-6 92,-34 129,-82 37,-49 54,-100 50,-153 -3,-37 -17,-66 -43,-85 -28,-24 -88,-46 -180,-64 -136,-28 -226,-64 -270,-109 -40,-36 -62,-80 -67,-134 -7,-96 21,-195 83,-296 63,-101 146,-187 250,-257 104,-69 211,-108 321,-117 54,-4 105,5 154,26 48,22 88,52 119,92 31,39 48,83 51,131 4,48 -7,99 -33,152 -27,53 -61,98 -105,136 -42,37 -84,57 -125,60 -24,2 -44,-1 -62,-10 -18,-9 -28,-19 -28,-30 -1,-12 1,-30 6,-53 13,-73 18,-137 14,-190 -4,-53 -24,-102 -59,-146 -39,32 -64,56 -75,74 -30,39 -51,83 -65,130 -15,50 -22,96 -19,138 3,30 11,54 27,70 15,17 39,31 71,41 32,10 81,20 146,31 108,18 185,37 230,58 10,5 27,16 49,33 34,31 54,75 58,129 4,58 -9,118 -41,179 -31,62 -82,127 -153,195 -75,75 -151,129 -228,164 -78,36 -164,57 -260,64 -93,7 -168,-6 -223,-38 -56,-33 -87,-81 -91,-145 -4,-45 10,-92 42,-141 31,-50 72,-91 122,-124 50,-33 100,-52 150,-55 37,-3 57,4 58,21 1,8 -4,22 -13,42 -27,61 -40,116 -36,166 3,35 18,67 46,97z"/>
   <path class="fil0" d="M287 12890l0 298 -286 0 0 129 286 0 0 301 134 0 0 -301 286 0 0 -129 -286 0 0 -298 -134 0zm542 -161l0 171 408 0 0 2 -367 716 220 0 367 -758 0 -131 -628 0zm759 0l0 171 408 0 0 2 -367 716 220 0 367 -758 0 -131 -628 0zm1075 -15c-229,0 -339,203 -339,461 1,251 103,458 333,458 227,0 337,-189 337,-464 0,-243 -93,-455 -331,-455zm-2 157c83,0 126,104 126,301 0,202 -44,304 -125,304 -81,0 -130,-97 -129,-301 -1,-207 51,-304 128,-304zm446 -142l0 171 407 0 0 2 -366 716 220 0 367 -758 0 -131 -628 0zm759 0l0 171 408 0 0 2 -367 716 220 0 367 -758 0 -131 -628 0zm1315 889l0 -212 106 0 0 -156 -106 0 0 -521 -255 0 -336 541 0 136 394 0 0 212 197 0zm-397 -368l0 -3 119 -194c30,-56 53,-108 82,-166l5 0c-4,58 -6,113 -6,166l0 197 -200 0zm916 -536c-229,0 -339,203 -339,461 2,251 103,458 333,458 227,0 338,-189 338,-464 0,-243 -94,-455 -332,-455zm-2 157c83,0 126,104 126,301 0,202 -44,304 -125,304 -81,0 -130,-97 -129,-301 -1,-207 51,-304 128,-304zm762 -157c-230,0 -340,203 -340,461 2,251 103,458 333,458 227,0 338,-189 338,-464 0,-243 -93,-455 -331,-455zm-3 157c83,0 126,104 126,301 0,202 -44,304 -125,304 -80,0 -130,-97 -128,-301 -2,-207 50,-304 127,-304zm581 291c-97,43 -158,117 -158,223 0,121 104,248 329,248 207,0 342,-108 342,-270 0,-114 -76,-188 -162,-221l0 -4c87,-44 128,-119 128,-196 0,-108 -86,-228 -294,-228 -178,0 -313,100 -313,250 0,78 42,150 128,194l0 4zm180 327c-78,0 -128,-60 -126,-124 0,-64 39,-114 108,-133 82,22 139,69 139,147 0,62 -48,110 -121,110zm-5 -634c77,0 109,54 109,109 0,56 -43,100 -91,114 -71,-22 -126,-61 -126,-121 0,-56 37,-102 108,-102zm1070 763l0 -171 -335 0 0 -3 82 -68c129,-115 237,-234 237,-383 0,-162 -111,-279 -312,-279 -120,0 -224,41 -291,91l58 149c47,-35 114,-73 191,-73 102,0 146,57 146,130 -3,103 -97,203 -291,377l-115 104 0 126 630 0zm723 -889l-490 0 -59 466c37,-5 71,-8 120,-8 178,0 251,56 251,148 0,94 -92,135 -178,135 -81,0 -161,-24 -201,-44l-37 156c49,26 139,51 248,51 239,0 381,-146 381,-312 0,-104 -41,-178 -108,-223 -63,-45 -149,-64 -234,-64 -22,0 -38,0 -57,3l19 -137 345 0 0 -171z"/>
  </g>
 </g>
</svg>
