<?xml version="1.0" encoding="UTF-8"?>
<!DOCTYPE svg PUBLIC "-//W3C//DTD SVG 1.1//EN" "http://www.w3.org/Graphics/SVG/1.1/DTD/svg11.dtd">
<!-- Creator: CorelDRAW X8 -->
<svg xmlns="http://www.w3.org/2000/svg" xml:space="preserve" width="105.241mm" height="131.318mm" version="1.1" style="shape-rendering:geometricPrecision; text-rendering:geometricPrecision; image-rendering:optimizeQuality; fill-rule:evenodd; clip-rule:evenodd"
viewBox="0 0 10524 13132"
 xmlns:xlink="http://www.w3.org/1999/xlink">
 <defs>
  <style type="text/css">
   <![CDATA[
    .fil0 {fill:#ffffff}
   ]]>
  </style>
 </defs>
 <g id="Слой_x0020_1">
  <metadata id="CorelCorpID_0Corel-Layer"/>
  <g id="_1634928477296">
   <path class="fil0" d="M3677 5821l0 2038c-240,0 -503,59 -503,-212l0 -2540c0,-1264 2379,-1365 3471,-931 322,128 710,467 710,904l0 2567c0,271 -263,212 -503,212l0 -2038c0,-188 -101,-317 -291,-317 -242,0 -266,249 -265,502l1 3943c0,404 48,1241 -27,1562 -218,50 -1793,50 -2011,0 -69,-295 -26,-4048 -26,-4684 0,-185 24,-1022 -32,-1160 -104,-257 -524,-221 -524,154zm-1032 -847l0 2779c0,341 375,661 767,661l265 0 0 2938c0,244 101,411 230,537 137,132 305,204 564,204l1587 0c465,0 794,-310 794,-741l0 -2938c325,0 627,14 866,-271 146,-173 193,-374 193,-681l0 -2117c0,-765 -248,-1143 -699,-1471 -868,-631 -3447,-740 -4284,378 -123,165 -283,450 -283,722z"/>
   <path class="fil0" d="M-1 11272c0,833 1241,1265 1882,1453 2065,606 6055,604 7934,-475 796,-456 1004,-1199 206,-1791 -242,-179 -603,-357 -916,-460 -550,-183 -1036,-314 -1641,-400 -457,-64 -505,469 -111,537 586,101 736,128 1325,290 380,104 1297,452 1297,873 0,534 -1535,934 -1965,1025 -1907,405 -4828,395 -6632,-341 -267,-108 -824,-377 -824,-711 0,-378 931,-745 1276,-841 280,-78 559,-161 849,-210 161,-27 309,-57 450,-78 111,-17 128,-10 199,-67 230,-187 78,-516 -218,-484 -516,57 -1200,246 -1666,400 -525,174 -1445,624 -1445,1280z"/>
   <path class="fil0" d="M4233 1667c0,-336 48,-623 310,-854 748,-660 1754,-55 1754,668 0,336 -49,623 -311,854 -426,376 -995,375 -1428,12 -147,-123 -325,-418 -325,-680zm878 -1667l317 0c359,40 698,216 995,509 743,734 477,2001 -445,2479 -301,157 -518,161 -846,161 -680,0 -1455,-712 -1455,-1588 0,-458 206,-831 443,-1065 164,-162 217,-218 439,-329 185,-92 370,-147 552,-167z"/>
  </g>
 </g>
</svg>
