<?xml version="1.0" encoding="UTF-8"?>
<!DOCTYPE svg PUBLIC "-//W3C//DTD SVG 1.1//EN" "http://www.w3.org/Graphics/SVG/1.1/DTD/svg11.dtd">
<!-- Creator: CorelDRAW X8 -->
<svg xmlns="http://www.w3.org/2000/svg" xml:space="preserve" width="76.3692mm" height="77.3006mm" version="1.1" style="shape-rendering:geometricPrecision; text-rendering:geometricPrecision; image-rendering:optimizeQuality; fill-rule:evenodd; clip-rule:evenodd"
viewBox="0 0 7637 7730"
 xmlns:xlink="http://www.w3.org/1999/xlink">
 <defs>
  <style type="text/css">
   <![CDATA[
    .fil0 {fill:#FEFEFE}
   ]]>
  </style>
 </defs>
 <g id="Слой_x0020_1">
  <metadata id="CorelCorpID_0Corel-Layer"/>
  <path class="fil0" d="M6718 1287c-30,362 -111,381 -238,683l-1498 3473c-149,370 -536,1112 -565,1460l-1196 -2118 3497 -3498zm0 0l0 0zm-3774 3130c-306,0 -1691,-891 -2209,-1012 210,-288 307,-223 643,-370l5156 -2208c-209,313 -3504,3590 -3590,3590zm-2946 -1288l0 368c263,61 2679,1212 2856,1471l1254 2520c159,232 27,94 309,243 288,-430 1341,-3060 1658,-3773 270,-605 1564,-3326 1564,-3959 -585,13 -4958,2019 -5680,2329l-1961 801z"/>
 </g>
</svg>
