<?xml version="1.0" encoding="UTF-8"?>
<!DOCTYPE svg PUBLIC "-//W3C//DTD SVG 1.1//EN" "http://www.w3.org/Graphics/SVG/1.1/DTD/svg11.dtd">
<!-- Creator: CorelDRAW X8 -->
<svg xmlns="http://www.w3.org/2000/svg" xml:space="preserve" width="133.35mm" height="137.583mm" version="1.1" style="shape-rendering:geometricPrecision; text-rendering:geometricPrecision; image-rendering:optimizeQuality; fill-rule:evenodd; clip-rule:evenodd"
viewBox="0 0 13335 13758"
 xmlns:xlink="http://www.w3.org/1999/xlink">
 <defs>
  <style type="text/css">
   <![CDATA[
    .fil0 {fill:#FEFEFE}
   ]]>
  </style>
 </defs>
 <g id="Слой_x0020_1">
  <metadata id="CorelCorpID_0Corel-Layer"/>
  <g id="_1670224084144">
   <path class="fil0" d="M10008 12960c466,0 825,-195 1145,-426l914 -756c95,-92 341,-265 403,-355 142,-205 85,-551 13,-756 -140,-403 -417,-799 -697,-1113 -30,-34 -40,-53 -70,-85l-225 -238c-31,-33 -34,-45 -63,-77 -135,-154 -567,-526 -719,-643 -364,-279 -565,-462 -937,-221 -512,331 -734,729 -1030,1215 -50,83 -271,544 -278,635 -56,-5 -157,-74 -206,-103l-662 -433c-33,-24 -57,-37 -90,-65 -230,-190 -475,-365 -687,-575 -35,-34 -50,-40 -85,-70 -31,-27 -54,-54 -84,-84l-676 -741c-399,-511 -770,-1038 -1061,-1620 -107,-215 -220,-422 -309,-646 -58,-150 -125,-298 -180,-451 -115,-317 -215,-615 -297,-966 146,-12 304,-65 443,-105 529,-149 1550,-460 1771,-980 109,-254 -84,-594 -188,-829 -58,-130 -106,-254 -169,-379l-177 -369c-183,-365 -372,-719 -615,-1042 -40,-53 -76,-93 -118,-148 -152,-195 -380,-405 -616,-493 -234,-89 -441,-32 -637,95l-995 675c-183,137 -449,343 -587,521 -182,235 -316,381 -419,690 -142,426 -50,894 30,1301 59,298 279,1180 387,1451l190 554c32,94 65,190 100,279 142,355 261,721 417,1071l111 254c257,620 634,1219 1016,1762l930 1105c128,127 245,245 372,372 247,248 516,480 786,702 201,165 860,605 1084,754 468,312 986,678 1487,927 368,182 776,406 1278,406z"/>
   <path class="fil0" d="M1 7108c0,859 162,1594 451,2398 135,376 341,755 545,1098 195,328 376,534 598,819l943 909c79,65 150,114 232,175 350,263 651,422 1030,613 731,367 1817,640 2643,640 696,0 1169,-15 1855,-193l418 -143c-82,-20 -658,-330 -783,-410 -397,-257 -210,-118 -732,-96 -170,8 -334,28 -519,28 -1028,0 -1984,-258 -2859,-748 -377,-211 -745,-470 -1060,-764 -221,-205 -312,-281 -535,-546 -60,-72 -109,-129 -164,-201 -27,-36 -51,-62 -80,-102 -29,-39 -48,-69 -76,-106 -100,-135 -193,-288 -282,-435 -49,-82 -81,-150 -128,-237l-121 -243c-286,-579 -548,-1494 -548,-2358 0,-822 123,-1555 423,-2285 140,-339 136,-181 43,-552l-213 -882c-50,37 -188,298 -222,354 -148,246 -275,531 -382,797 -180,450 -300,877 -385,1384 -26,157 -61,360 -64,525 -1,69 -9,73 -13,127 -4,48 0,105 0,154 -1,86 -15,113 -15,280z"/>
   <path class="fil0" d="M6008 470c36,69 76,123 117,192l169 293c24,40 34,56 55,100 35,70 90,139 108,215 116,0 212,-28 345,-8 62,9 107,8 175,8 172,-1 662,69 812,99 426,86 990,261 1381,458 86,43 160,76 244,121 158,86 310,176 456,274 328,218 378,282 623,471l199 180c542,547 889,986 1239,1695 39,80 75,169 112,252 141,322 185,501 282,827 210,703 220,1618 115,2349 -53,367 -111,514 -188,811 -27,102 92,182 228,348 45,55 317,399 334,465l129 -265c96,-266 188,-579 245,-863 91,-462 140,-908 146,-1342l0 -195c-17,-1091 -306,-2111 -866,-3136 -211,-386 -407,-632 -664,-963 -170,-219 -617,-665 -816,-826 -364,-294 -538,-432 -950,-679 -88,-53 -171,-91 -261,-145 -235,-141 -594,-275 -858,-377 -567,-219 -1433,-387 -2083,-387 -175,0 -414,-6 -578,12 -41,4 -82,0 -123,3 -54,4 -58,13 -127,13z"/>
  </g>
 </g>
</svg>
